<svg width="12" height="12" viewBox="0 0 12 12" fill="none" xmlns="http://www.w3.org/2000/svg">
<path fill-rule="evenodd" clip-rule="evenodd" d="M0 6C0 2.68629 2.68629 0 6 0C7.5913 0 9.11742 0.632141 10.2426 1.75736C11.3679 2.88258 12 4.4087 12 6C12 9.31371 9.31371 12 6 12C2.68629 12 0 9.31371 0 6ZM7.94494 7.32603C7.94494 7.24647 7.91203 7.17047 7.85403 7.11603L6.74403 6.00003L7.85403 4.88403C7.91203 4.82959 7.94494 4.75358 7.94494 4.67403C7.94494 4.59447 7.91203 4.51847 7.85403 4.46403L7.53603 4.14603C7.48159 4.08802 7.40558 4.05511 7.32603 4.05511C7.24647 4.05511 7.17047 4.08802 7.11603 4.14603L6.00003 5.25603L4.88403 4.14603C4.82959 4.08802 4.75358 4.05511 4.67403 4.05511C4.59447 4.05511 4.51847 4.08802 4.46403 4.14603L4.14603 4.46403C4.08802 4.51847 4.05511 4.59447 4.05511 4.67403C4.05511 4.75358 4.08802 4.82959 4.14603 4.88403L5.25603 6.00003L4.14603 7.11603C4.08802 7.17047 4.05511 7.24647 4.05511 7.32603C4.05511 7.40558 4.08802 7.48159 4.14603 7.53603L4.46403 7.85402C4.51847 7.91203 4.59447 7.94494 4.67403 7.94494C4.75358 7.94494 4.82959 7.91203 4.88403 7.85402L6.00003 6.74403L7.11603 7.85402C7.17047 7.91203 7.24647 7.94494 7.32603 7.94494C7.40558 7.94494 7.48159 7.91203 7.53603 7.85402L7.85403 7.53603C7.91203 7.48159 7.94494 7.40558 7.94494 7.32603Z" fill="#D8D8D8"/>
</svg>
